<svg xmlns="http://www.w3.org/2000/svg" xmlns:xlink="http://www.w3.org/1999/xlink" width="336" zoomAndPan="magnify" viewBox="0 0 252 143.999998" height="192" preserveAspectRatio="xMidYMid meet" version="1.0"><defs><g/><clipPath id="02fae273da"><rect x="0" width="223" y="0" height="63"/></clipPath><clipPath id="a365a5931f"><path d="M 0.640625 1 L 8 1 L 8 10 L 0.640625 10 Z M 0.640625 1 " clip-rule="nonzero"/></clipPath><clipPath id="74d1991a5f"><rect x="0" width="144" y="0" height="12"/></clipPath></defs><g transform="matrix(1, 0, 0, 1, 17, 40)"><g clip-path="url(#02fae273da)"><g fill="#ffffff" fill-opacity="1"><g transform="translate(0.775256, 48.709251)"><g><path d="M 0.84375 0 L 18.609375 -30.109375 C 19.328125 -31.316406 19.472656 -32.265625 19.046875 -32.953125 C 18.617188 -33.640625 17.675781 -33.984375 16.21875 -33.984375 C 13.945312 -33.984375 12.019531 -33.640625 10.4375 -32.953125 C 8.863281 -32.265625 7.523438 -31.128906 6.421875 -29.546875 C 5.328125 -27.972656 4.335938 -25.851562 3.453125 -23.1875 L 2.234375 -23.1875 L 3.71875 -35.21875 L 32.28125 -35.21875 L 14.203125 -5.109375 C 13.492188 -3.898438 13.351562 -2.945312 13.78125 -2.25 C 14.207031 -1.5625 15.144531 -1.21875 16.59375 -1.21875 C 19.25 -1.21875 21.4375 -1.5625 23.15625 -2.25 C 24.882812 -2.945312 26.316406 -4.09375 27.453125 -5.6875 C 28.585938 -7.28125 29.597656 -9.390625 30.484375 -12.015625 L 31.703125 -12.015625 L 30.21875 0 Z M 0.84375 0 "/></g></g></g><g fill="#ffffff" fill-opacity="1"><g transform="translate(38.105673, 48.709251)"><g><path d="M 0.3125 0 L 0.3125 -1.21875 C 1.34375 -1.21875 2.378906 -1.722656 3.421875 -2.734375 C 4.472656 -3.742188 5.53125 -5.109375 6.59375 -6.828125 C 7.65625 -8.554688 8.703125 -10.484375 9.734375 -12.609375 C 10.765625 -14.734375 11.757812 -16.921875 12.71875 -19.171875 C 13.675781 -21.421875 14.578125 -23.59375 15.421875 -25.6875 C 16.273438 -27.78125 17.066406 -29.660156 17.796875 -31.328125 C 18.523438 -32.992188 19.15625 -34.289062 19.6875 -35.21875 L 21.546875 -35.21875 L 34.953125 -6.015625 C 35.546875 -4.773438 36.109375 -3.796875 36.640625 -3.078125 C 37.179688 -2.367188 37.835938 -1.878906 38.609375 -1.609375 C 39.390625 -1.347656 40.40625 -1.21875 41.65625 -1.21875 L 41.65625 0 L 21.015625 0 L 21.015625 -1.21875 C 23.242188 -1.21875 24.632812 -1.523438 25.1875 -2.140625 C 25.738281 -2.765625 25.640625 -3.929688 24.890625 -5.640625 L 22.71875 -10.640625 L 10.484375 -10.640625 C 9.984375 -9.285156 9.570312 -8.039062 9.25 -6.90625 C 8.9375 -5.78125 8.78125 -4.878906 8.78125 -4.203125 C 8.78125 -3.316406 9.078125 -2.597656 9.671875 -2.046875 C 10.273438 -1.492188 11.078125 -1.21875 12.078125 -1.21875 L 12.078125 0 Z M 16.59375 -24.578125 C 16.238281 -23.867188 15.734375 -22.820312 15.078125 -21.4375 C 14.421875 -20.050781 13.726562 -18.523438 13 -16.859375 C 12.28125 -15.191406 11.597656 -13.523438 10.953125 -11.859375 L 22.1875 -11.859375 Z M 16.59375 -24.578125 "/></g></g></g><g fill="#ffffff" fill-opacity="1"><g transform="translate(81.07308, 48.709251)"><g><path d="M 1.59375 -17.609375 C 1.59375 -20.941406 2.210938 -23.972656 3.453125 -26.703125 C 4.691406 -29.429688 6.523438 -31.601562 8.953125 -33.21875 C 11.390625 -34.832031 14.363281 -35.640625 17.875 -35.640625 C 19.644531 -35.640625 21.125 -35.460938 22.3125 -35.109375 C 23.5 -34.753906 24.535156 -34.390625 25.421875 -34.015625 C 26.304688 -33.640625 27.140625 -33.453125 27.921875 -33.453125 C 28.453125 -33.453125 28.910156 -33.578125 29.296875 -33.828125 C 29.691406 -34.078125 30.140625 -34.539062 30.640625 -35.21875 L 31.859375 -35.21875 L 31.859375 -23.03125 L 30.640625 -23.03125 C 29.429688 -26.644531 27.859375 -29.445312 25.921875 -31.4375 C 23.992188 -33.425781 21.878906 -34.421875 19.578125 -34.421875 C 17.984375 -34.421875 16.671875 -33.945312 15.640625 -33 C 14.609375 -32.0625 13.789062 -30.785156 13.1875 -29.171875 C 12.582031 -27.554688 12.15625 -25.753906 11.90625 -23.765625 C 11.664062 -21.785156 11.546875 -19.734375 11.546875 -17.609375 C 11.546875 -12.179688 12.257812 -8.019531 13.6875 -5.125 C 15.125 -2.238281 17.265625 -0.796875 20.109375 -0.796875 C 20.597656 -0.796875 21.296875 -0.894531 22.203125 -1.09375 C 23.109375 -1.289062 24.128906 -1.75 25.265625 -2.46875 C 26.398438 -3.195312 27.535156 -4.332031 28.671875 -5.875 C 29.804688 -7.414062 30.816406 -9.519531 31.703125 -12.1875 L 32.921875 -12.1875 L 31.703125 -4.953125 C 30.460938 -3.640625 28.722656 -2.414062 26.484375 -1.28125 C 24.253906 -0.144531 21.5625 0.421875 18.40625 0.421875 C 14.96875 0.421875 11.988281 -0.320312 9.46875 -1.8125 C 6.945312 -3.300781 5.003906 -5.398438 3.640625 -8.109375 C 2.273438 -10.828125 1.59375 -13.992188 1.59375 -17.609375 Z M 1.59375 -17.609375 "/></g></g></g><g fill="#ffffff" fill-opacity="1"><g transform="translate(119.360858, 48.709251)"><g><path d="M 0.75 -1.21875 C 2.269531 -1.21875 3.410156 -1.320312 4.171875 -1.53125 C 4.929688 -1.75 5.4375 -2.195312 5.6875 -2.875 C 5.9375 -3.550781 6.0625 -4.539062 6.0625 -5.84375 L 6.0625 -29.359375 C 6.0625 -30.710938 5.9375 -31.710938 5.6875 -32.359375 C 5.4375 -33.015625 4.929688 -33.445312 4.171875 -33.65625 C 3.410156 -33.875 2.269531 -33.984375 0.75 -33.984375 L 0.75 -35.21875 L 20.796875 -35.21875 L 20.796875 -33.984375 C 19.273438 -33.984375 18.128906 -33.875 17.359375 -33.65625 C 16.597656 -33.445312 16.09375 -33.015625 15.84375 -32.359375 C 15.601562 -31.710938 15.484375 -30.710938 15.484375 -29.359375 L 15.484375 -18.9375 L 30.578125 -18.9375 L 30.578125 -29.359375 C 30.578125 -30.710938 30.453125 -31.710938 30.203125 -32.359375 C 29.960938 -33.015625 29.457031 -33.445312 28.6875 -33.65625 C 27.925781 -33.875 26.785156 -33.984375 25.265625 -33.984375 L 25.265625 -35.21875 L 45.3125 -35.21875 L 45.3125 -33.984375 C 43.789062 -33.984375 42.648438 -33.875 41.890625 -33.65625 C 41.128906 -33.445312 40.625 -33.015625 40.375 -32.359375 C 40.125 -31.710938 40 -30.710938 40 -29.359375 L 40 -5.84375 C 40 -4.539062 40.125 -3.550781 40.375 -2.875 C 40.625 -2.195312 41.128906 -1.75 41.890625 -1.53125 C 42.648438 -1.320312 43.789062 -1.21875 45.3125 -1.21875 L 45.3125 0 L 25.265625 0 L 25.265625 -1.21875 C 26.785156 -1.21875 27.925781 -1.320312 28.6875 -1.53125 C 29.457031 -1.75 29.960938 -2.195312 30.203125 -2.875 C 30.453125 -3.550781 30.578125 -4.539062 30.578125 -5.84375 L 30.578125 -17.71875 L 15.484375 -17.71875 L 15.484375 -5.84375 C 15.484375 -4.539062 15.601562 -3.550781 15.84375 -2.875 C 16.09375 -2.195312 16.597656 -1.75 17.359375 -1.53125 C 18.128906 -1.320312 19.273438 -1.21875 20.796875 -1.21875 L 20.796875 0 L 0.75 0 Z M 0.75 -1.21875 "/></g></g></g><g fill="#ffffff" fill-opacity="1"><g transform="translate(170.146472, 48.709251)"><g><path d="M 5 -21.703125 C 4.613281 -23.085938 4.109375 -24.285156 3.484375 -25.296875 C 2.859375 -26.304688 2.296875 -27.269531 1.796875 -28.1875 C 1.304688 -29.113281 1.0625 -30.085938 1.0625 -31.109375 C 1.0625 -32.460938 1.503906 -33.554688 2.390625 -34.390625 C 3.273438 -35.222656 4.375 -35.640625 5.6875 -35.640625 C 7 -35.640625 8.097656 -35.222656 8.984375 -34.390625 C 9.867188 -33.554688 10.3125 -32.460938 10.3125 -31.109375 C 10.3125 -30.085938 10.0625 -29.113281 9.5625 -28.1875 C 9.070312 -27.269531 8.515625 -26.304688 7.890625 -25.296875 C 7.273438 -24.285156 6.773438 -23.085938 6.390625 -21.703125 C 6.171875 -20.921875 6.050781 -20.390625 6.03125 -20.109375 C 6.019531 -19.828125 5.90625 -19.6875 5.6875 -19.6875 C 5.476562 -19.6875 5.363281 -19.828125 5.34375 -20.109375 C 5.320312 -20.390625 5.207031 -20.921875 5 -21.703125 Z M 5 -21.703125 "/></g></g></g><g fill="#ffffff" fill-opacity="1"><g transform="translate(186.257232, 48.709251)"><g><path d="M 1.0625 0 L 1.0625 -12.1875 L 2.28125 -12.1875 C 3.53125 -8.5 5.242188 -5.675781 7.421875 -3.71875 C 9.597656 -1.769531 12.160156 -0.796875 15.109375 -0.796875 C 17.023438 -0.796875 18.492188 -1.203125 19.515625 -2.015625 C 20.546875 -2.835938 21.0625 -4.007812 21.0625 -5.53125 C 21.0625 -6.914062 20.597656 -8.101562 19.671875 -9.09375 C 18.753906 -10.082031 17.566406 -10.984375 16.109375 -11.796875 C 14.660156 -12.617188 13.109375 -13.425781 11.453125 -14.21875 C 9.804688 -15.019531 8.253906 -15.914062 6.796875 -16.90625 C 5.347656 -17.90625 4.160156 -19.09375 3.234375 -20.46875 C 2.316406 -21.851562 1.859375 -23.539062 1.859375 -25.53125 C 1.859375 -27.550781 2.375 -29.3125 3.40625 -30.8125 C 4.4375 -32.320312 5.878906 -33.503906 7.734375 -34.359375 C 9.597656 -35.210938 11.738281 -35.640625 14.15625 -35.640625 C 15.925781 -35.640625 17.429688 -35.460938 18.671875 -35.109375 C 19.910156 -34.753906 21 -34.390625 21.9375 -34.015625 C 22.875 -33.640625 23.734375 -33.453125 24.515625 -33.453125 C 25.046875 -33.453125 25.503906 -33.578125 25.890625 -33.828125 C 26.285156 -34.078125 26.734375 -34.539062 27.234375 -35.21875 L 28.453125 -35.21875 L 28.453125 -23.03125 L 27.234375 -23.03125 C 26.023438 -26.613281 24.398438 -29.40625 22.359375 -31.40625 C 20.328125 -33.414062 18.085938 -34.421875 15.640625 -34.421875 C 14.003906 -34.421875 12.71875 -33.984375 11.78125 -33.109375 C 10.84375 -32.242188 10.375 -31.082031 10.375 -29.625 C 10.375 -28.238281 10.832031 -27.050781 11.75 -26.0625 C 12.675781 -25.070312 13.863281 -24.175781 15.3125 -23.375 C 16.769531 -22.582031 18.320312 -21.785156 19.96875 -20.984375 C 21.625 -20.179688 23.175781 -19.285156 24.625 -18.296875 C 26.082031 -17.304688 27.269531 -16.117188 28.1875 -14.734375 C 29.113281 -13.347656 29.578125 -11.664062 29.578125 -9.6875 C 29.578125 -6.59375 28.367188 -4.132812 25.953125 -2.3125 C 23.546875 -0.488281 20.285156 0.421875 16.171875 0.421875 C 14.148438 0.421875 12.457031 0.238281 11.09375 -0.125 C 9.726562 -0.5 8.570312 -0.863281 7.625 -1.21875 C 6.6875 -1.570312 5.8125 -1.75 5 -1.75 C 4.46875 -1.75 4.003906 -1.625 3.609375 -1.375 C 3.222656 -1.132812 2.78125 -0.675781 2.28125 0 Z M 1.0625 0 "/></g></g></g></g></g><g transform="matrix(1, 0, 0, 1, 56, 90)"><g clip-path="url(#74d1991a5f)"><g clip-path="url(#a365a5931f)"><g fill="#ffffff" fill-opacity="1"><g transform="translate(0.781749, 8.085516)"><g><path d="M 3.53125 -6.21875 C 4.09375 -6.21875 4.582031 -6.128906 5 -5.953125 C 5.414062 -5.773438 5.765625 -5.535156 6.046875 -5.234375 C 6.328125 -4.929688 6.535156 -4.585938 6.671875 -4.203125 C 6.804688 -3.828125 6.875 -3.4375 6.875 -3.03125 C 6.875 -2.632812 6.804688 -2.242188 6.671875 -1.859375 C 6.535156 -1.484375 6.328125 -1.144531 6.046875 -0.84375 C 5.765625 -0.539062 5.414062 -0.300781 5 -0.125 C 4.582031 0.0507812 4.09375 0.140625 3.53125 0.140625 C 2.976562 0.140625 2.488281 0.0507812 2.0625 -0.125 C 1.644531 -0.300781 1.296875 -0.539062 1.015625 -0.84375 C 0.742188 -1.144531 0.535156 -1.484375 0.390625 -1.859375 C 0.253906 -2.242188 0.1875 -2.632812 0.1875 -3.03125 C 0.1875 -3.4375 0.253906 -3.828125 0.390625 -4.203125 C 0.535156 -4.585938 0.742188 -4.929688 1.015625 -5.234375 C 1.296875 -5.535156 1.644531 -5.773438 2.0625 -5.953125 C 2.488281 -6.128906 2.976562 -6.21875 3.53125 -6.21875 Z M 3.53125 -6.03125 C 3.039062 -6.03125 2.617188 -5.921875 2.265625 -5.703125 C 1.921875 -5.484375 1.644531 -5.195312 1.4375 -4.84375 C 1.226562 -4.488281 1.085938 -4.097656 1.015625 -3.671875 C 0.941406 -3.242188 0.941406 -2.816406 1.015625 -2.390625 C 1.085938 -1.972656 1.226562 -1.585938 1.4375 -1.234375 C 1.644531 -0.878906 1.921875 -0.59375 2.265625 -0.375 C 2.617188 -0.15625 3.039062 -0.046875 3.53125 -0.046875 C 4.019531 -0.046875 4.4375 -0.15625 4.78125 -0.375 C 5.132812 -0.59375 5.414062 -0.878906 5.625 -1.234375 C 5.84375 -1.585938 5.984375 -1.976562 6.046875 -2.40625 C 6.117188 -2.832031 6.117188 -3.253906 6.046875 -3.671875 C 5.984375 -4.097656 5.847656 -4.488281 5.640625 -4.84375 C 5.429688 -5.195312 5.148438 -5.484375 4.796875 -5.703125 C 4.441406 -5.921875 4.019531 -6.03125 3.53125 -6.03125 Z M 6.703125 0.359375 C 6.796875 0.460938 6.820312 0.566406 6.78125 0.671875 C 6.738281 0.773438 6.675781 0.867188 6.59375 0.953125 C 6.414062 1.140625 6.210938 1.304688 5.984375 1.453125 C 5.753906 1.609375 5.503906 1.6875 5.234375 1.6875 C 5.015625 1.6875 4.804688 1.632812 4.609375 1.53125 C 4.410156 1.4375 4.222656 1.328125 4.046875 1.203125 C 3.867188 1.085938 3.695312 0.976562 3.53125 0.875 C 3.375 0.78125 3.21875 0.734375 3.0625 0.734375 C 2.976562 0.734375 2.90625 0.75 2.84375 0.78125 C 2.78125 0.800781 2.738281 0.785156 2.71875 0.734375 C 2.695312 0.691406 2.722656 0.648438 2.796875 0.609375 C 2.941406 0.503906 3.09375 0.441406 3.25 0.421875 C 3.414062 0.398438 3.578125 0.398438 3.734375 0.421875 C 3.953125 0.441406 4.148438 0.5 4.328125 0.59375 C 4.503906 0.695312 4.671875 0.804688 4.828125 0.921875 C 4.992188 1.046875 5.15625 1.144531 5.3125 1.21875 C 5.476562 1.289062 5.65625 1.3125 5.84375 1.28125 C 5.976562 1.257812 6.066406 1.21875 6.109375 1.15625 C 6.160156 1.09375 6.1875 1.015625 6.1875 0.921875 C 6.195312 0.835938 6.195312 0.75 6.1875 0.65625 C 6.1875 0.570312 6.203125 0.492188 6.234375 0.421875 C 6.253906 0.367188 6.285156 0.328125 6.328125 0.296875 C 6.378906 0.273438 6.429688 0.265625 6.484375 0.265625 C 6.585938 0.265625 6.660156 0.296875 6.703125 0.359375 Z M 6.703125 0.359375 "/></g></g></g></g><g fill="#ffffff" fill-opacity="1"><g transform="translate(11.028346, 8.085516)"><g><path d="M 6.59375 -6.078125 C 6.644531 -6.078125 6.671875 -6.050781 6.671875 -6 C 6.671875 -5.957031 6.644531 -5.929688 6.59375 -5.921875 C 6.488281 -5.910156 6.378906 -5.898438 6.265625 -5.890625 C 6.160156 -5.878906 6.066406 -5.84375 5.984375 -5.78125 C 5.910156 -5.726562 5.875 -5.613281 5.875 -5.4375 L 5.875 -2.234375 C 5.875 -1.835938 5.804688 -1.492188 5.671875 -1.203125 C 5.535156 -0.910156 5.347656 -0.664062 5.109375 -0.46875 C 4.867188 -0.269531 4.597656 -0.117188 4.296875 -0.015625 C 3.992188 0.078125 3.6875 0.125 3.375 0.125 C 3.0625 0.125 2.753906 0.078125 2.453125 -0.015625 C 2.160156 -0.117188 1.894531 -0.269531 1.65625 -0.46875 C 1.414062 -0.664062 1.222656 -0.910156 1.078125 -1.203125 C 0.941406 -1.492188 0.875 -1.835938 0.875 -2.234375 L 0.875 -5.4375 C 0.875 -5.613281 0.84375 -5.726562 0.78125 -5.78125 C 0.726562 -5.84375 0.65625 -5.878906 0.5625 -5.890625 C 0.476562 -5.898438 0.378906 -5.910156 0.265625 -5.921875 C 0.222656 -5.929688 0.203125 -5.957031 0.203125 -6 C 0.203125 -6.050781 0.226562 -6.078125 0.28125 -6.078125 L 2.203125 -6.078125 C 2.253906 -6.078125 2.28125 -6.050781 2.28125 -6 C 2.28125 -5.957031 2.253906 -5.929688 2.203125 -5.921875 C 2.097656 -5.910156 2 -5.898438 1.90625 -5.890625 C 1.8125 -5.878906 1.734375 -5.84375 1.671875 -5.78125 C 1.617188 -5.726562 1.59375 -5.613281 1.59375 -5.4375 L 1.59375 -2.234375 C 1.601562 -1.785156 1.703125 -1.410156 1.890625 -1.109375 C 2.085938 -0.816406 2.335938 -0.59375 2.640625 -0.4375 C 2.941406 -0.289062 3.257812 -0.21875 3.59375 -0.21875 C 3.925781 -0.21875 4.25 -0.289062 4.5625 -0.4375 C 4.875 -0.59375 5.128906 -0.820312 5.328125 -1.125 C 5.523438 -1.425781 5.625 -1.796875 5.625 -2.234375 L 5.625 -5.46875 C 5.625 -5.625 5.582031 -5.726562 5.5 -5.78125 C 5.425781 -5.84375 5.332031 -5.878906 5.21875 -5.890625 C 5.113281 -5.898438 5.007812 -5.910156 4.90625 -5.921875 C 4.851562 -5.929688 4.828125 -5.957031 4.828125 -6 C 4.835938 -6.050781 4.863281 -6.078125 4.90625 -6.078125 Z M 6.59375 -6.078125 "/></g></g></g><g fill="#ffffff" fill-opacity="1"><g transform="translate(19.957838, 8.085516)"><g><path d="M 6.921875 -0.15625 C 6.972656 -0.144531 7 -0.117188 7 -0.078125 C 7 -0.046875 6.972656 -0.03125 6.921875 -0.03125 C 6.796875 -0.03125 6.679688 -0.03125 6.578125 -0.03125 C 6.484375 -0.03125 6.382812 -0.03125 6.28125 -0.03125 L 6.28125 -0.046875 L 5.515625 -0.046875 L 5.515625 -0.03125 C 5.410156 -0.03125 5.300781 -0.03125 5.1875 -0.03125 C 5.082031 -0.03125 4.960938 -0.03125 4.828125 -0.03125 C 4.773438 -0.03125 4.75 -0.046875 4.75 -0.078125 C 4.75 -0.117188 4.773438 -0.144531 4.828125 -0.15625 C 4.929688 -0.175781 5.03125 -0.1875 5.125 -0.1875 C 5.21875 -0.195312 5.285156 -0.222656 5.328125 -0.265625 C 5.367188 -0.316406 5.359375 -0.414062 5.296875 -0.5625 C 5.242188 -0.707031 5.1875 -0.851562 5.125 -1 C 5.0625 -1.15625 5 -1.304688 4.9375 -1.453125 L 1.71875 -1.453125 L 1.359375 -0.5625 C 1.296875 -0.414062 1.296875 -0.316406 1.359375 -0.265625 C 1.429688 -0.222656 1.53125 -0.195312 1.65625 -0.1875 C 1.78125 -0.1875 1.894531 -0.175781 2 -0.15625 C 2.050781 -0.144531 2.070312 -0.117188 2.0625 -0.078125 C 2.0625 -0.046875 2.035156 -0.03125 1.984375 -0.03125 C 1.859375 -0.03125 1.710938 -0.03125 1.546875 -0.03125 C 1.378906 -0.03125 1.242188 -0.03125 1.140625 -0.03125 L 1.140625 -0.046875 L 0.90625 -0.046875 L 0.90625 -0.03125 C 0.800781 -0.03125 0.703125 -0.03125 0.609375 -0.03125 C 0.515625 -0.03125 0.40625 -0.03125 0.28125 -0.03125 C 0.238281 -0.03125 0.210938 -0.046875 0.203125 -0.078125 C 0.203125 -0.117188 0.222656 -0.144531 0.265625 -0.15625 C 0.378906 -0.175781 0.484375 -0.1875 0.578125 -0.1875 C 0.679688 -0.195312 0.773438 -0.226562 0.859375 -0.28125 C 0.953125 -0.34375 1.035156 -0.457031 1.109375 -0.625 C 1.460938 -1.476562 1.816406 -2.332031 2.171875 -3.1875 C 2.535156 -4.039062 2.894531 -4.898438 3.25 -5.765625 C 3.320312 -5.910156 3.382812 -6.015625 3.4375 -6.078125 C 3.5 -6.140625 3.613281 -6.15625 3.78125 -6.125 L 6.109375 -0.5625 C 6.179688 -0.414062 6.257812 -0.316406 6.34375 -0.265625 C 6.425781 -0.222656 6.515625 -0.195312 6.609375 -0.1875 C 6.710938 -0.1875 6.816406 -0.175781 6.921875 -0.15625 Z M 1.828125 -1.671875 L 4.828125 -1.671875 C 4.585938 -2.222656 4.347656 -2.773438 4.109375 -3.328125 C 3.878906 -3.890625 3.648438 -4.453125 3.421875 -5.015625 C 3.347656 -5.160156 3.28125 -5.160156 3.21875 -5.015625 Z M 1.828125 -1.671875 "/></g></g></g><g fill="#ffffff" fill-opacity="1"><g transform="translate(30.572495, 8.085516)"><g><path d="M 5.15625 -1.28125 C 5.175781 -1.320312 5.207031 -1.34375 5.25 -1.34375 C 5.300781 -1.34375 5.328125 -1.316406 5.328125 -1.265625 L 5.28125 -0.09375 C 5.28125 -0.0625 5.257812 -0.046875 5.21875 -0.046875 L 0.28125 -0.046875 C 0.226562 -0.046875 0.203125 -0.0664062 0.203125 -0.109375 C 0.203125 -0.160156 0.222656 -0.191406 0.265625 -0.203125 C 0.378906 -0.222656 0.476562 -0.238281 0.5625 -0.25 C 0.65625 -0.257812 0.726562 -0.289062 0.78125 -0.34375 C 0.84375 -0.40625 0.875 -0.519531 0.875 -0.6875 L 0.875 -5.46875 C 0.875 -5.644531 0.84375 -5.757812 0.78125 -5.8125 C 0.726562 -5.875 0.65625 -5.90625 0.5625 -5.90625 C 0.476562 -5.914062 0.378906 -5.929688 0.265625 -5.953125 C 0.222656 -5.972656 0.203125 -6.003906 0.203125 -6.046875 C 0.203125 -6.097656 0.226562 -6.125 0.28125 -6.125 L 2.1875 -6.125 C 2.238281 -6.125 2.265625 -6.097656 2.265625 -6.046875 C 2.273438 -6.003906 2.253906 -5.972656 2.203125 -5.953125 C 2.085938 -5.929688 1.984375 -5.914062 1.890625 -5.90625 C 1.796875 -5.90625 1.722656 -5.875 1.671875 -5.8125 C 1.617188 -5.757812 1.59375 -5.644531 1.59375 -5.46875 L 1.59375 -0.671875 C 1.59375 -0.523438 1.625 -0.421875 1.6875 -0.359375 C 1.757812 -0.304688 1.847656 -0.273438 1.953125 -0.265625 L 3.765625 -0.265625 C 4.097656 -0.265625 4.359375 -0.300781 4.546875 -0.375 C 4.734375 -0.457031 4.867188 -0.578125 4.953125 -0.734375 C 5.046875 -0.890625 5.113281 -1.070312 5.15625 -1.28125 Z M 5.15625 -1.28125 "/></g></g></g><g fill="#ffffff" fill-opacity="1"><g transform="translate(39.715235, 8.085516)"><g><path d="M 2.203125 -0.203125 C 2.253906 -0.191406 2.273438 -0.160156 2.265625 -0.109375 C 2.265625 -0.0664062 2.238281 -0.046875 2.1875 -0.046875 L 0.28125 -0.046875 C 0.226562 -0.046875 0.203125 -0.0664062 0.203125 -0.109375 C 0.203125 -0.160156 0.222656 -0.191406 0.265625 -0.203125 C 0.378906 -0.222656 0.476562 -0.238281 0.5625 -0.25 C 0.65625 -0.257812 0.726562 -0.289062 0.78125 -0.34375 C 0.84375 -0.40625 0.875 -0.519531 0.875 -0.6875 L 0.875 -5.46875 C 0.875 -5.644531 0.84375 -5.757812 0.78125 -5.8125 C 0.726562 -5.875 0.65625 -5.90625 0.5625 -5.90625 C 0.476562 -5.914062 0.378906 -5.929688 0.265625 -5.953125 C 0.222656 -5.972656 0.203125 -6.003906 0.203125 -6.046875 C 0.203125 -6.097656 0.226562 -6.125 0.28125 -6.125 L 2.1875 -6.125 C 2.238281 -6.125 2.265625 -6.097656 2.265625 -6.046875 C 2.273438 -6.003906 2.253906 -5.972656 2.203125 -5.953125 C 2.085938 -5.929688 1.984375 -5.914062 1.890625 -5.90625 C 1.796875 -5.90625 1.722656 -5.875 1.671875 -5.8125 C 1.617188 -5.757812 1.59375 -5.644531 1.59375 -5.46875 L 1.59375 -0.6875 C 1.59375 -0.519531 1.617188 -0.40625 1.671875 -0.34375 C 1.722656 -0.289062 1.796875 -0.257812 1.890625 -0.25 C 1.984375 -0.238281 2.085938 -0.222656 2.203125 -0.203125 Z M 2.203125 -0.203125 "/></g></g></g><g fill="#ffffff" fill-opacity="1"><g transform="translate(45.613943, 8.085516)"><g><path d="M 5.703125 -6.03125 L 5.75 -4.90625 C 5.757812 -4.863281 5.738281 -4.835938 5.6875 -4.828125 C 5.632812 -4.828125 5.601562 -4.851562 5.59375 -4.90625 C 5.550781 -5.101562 5.515625 -5.265625 5.484375 -5.390625 C 5.453125 -5.515625 5.398438 -5.609375 5.328125 -5.671875 C 5.253906 -5.742188 5.140625 -5.789062 4.984375 -5.8125 C 4.835938 -5.84375 4.625 -5.859375 4.34375 -5.859375 L 3.765625 -5.859375 C 3.640625 -5.859375 3.535156 -5.832031 3.453125 -5.78125 C 3.367188 -5.726562 3.328125 -5.617188 3.328125 -5.453125 L 3.328125 -0.640625 C 3.328125 -0.472656 3.351562 -0.359375 3.40625 -0.296875 C 3.46875 -0.234375 3.546875 -0.195312 3.640625 -0.1875 C 3.734375 -0.1875 3.832031 -0.175781 3.9375 -0.15625 C 3.988281 -0.144531 4.015625 -0.113281 4.015625 -0.0625 C 4.015625 -0.0078125 3.988281 0.015625 3.9375 0.015625 L 2.03125 0.015625 C 1.976562 0.015625 1.945312 -0.0078125 1.9375 -0.0625 C 1.9375 -0.113281 1.957031 -0.144531 2 -0.15625 C 2.113281 -0.175781 2.21875 -0.1875 2.3125 -0.1875 C 2.40625 -0.195312 2.476562 -0.234375 2.53125 -0.296875 C 2.582031 -0.359375 2.609375 -0.472656 2.609375 -0.640625 L 2.609375 -5.453125 C 2.609375 -5.617188 2.566406 -5.726562 2.484375 -5.78125 C 2.398438 -5.832031 2.300781 -5.859375 2.1875 -5.859375 L 1.609375 -5.859375 C 1.328125 -5.859375 1.109375 -5.84375 0.953125 -5.8125 C 0.804688 -5.789062 0.695312 -5.742188 0.625 -5.671875 C 0.550781 -5.609375 0.5 -5.515625 0.46875 -5.390625 C 0.4375 -5.265625 0.40625 -5.101562 0.375 -4.90625 C 0.363281 -4.851562 0.328125 -4.828125 0.265625 -4.828125 C 0.210938 -4.835938 0.191406 -4.863281 0.203125 -4.90625 L 0.25 -6.03125 C 0.25 -6.0625 0.269531 -6.078125 0.3125 -6.078125 L 5.640625 -6.078125 C 5.679688 -6.078125 5.703125 -6.0625 5.703125 -6.03125 Z M 5.703125 -6.03125 "/></g></g></g><g fill="#ffffff" fill-opacity="1"><g transform="translate(54.998768, 8.085516)"><g><path d="M 7 -6.078125 C 7.050781 -6.078125 7.078125 -6.0625 7.078125 -6.03125 C 7.078125 -6.007812 7.050781 -5.992188 7 -5.984375 C 6.894531 -5.960938 6.796875 -5.945312 6.703125 -5.9375 C 6.609375 -5.925781 6.515625 -5.894531 6.421875 -5.84375 C 6.328125 -5.789062 6.222656 -5.6875 6.109375 -5.53125 L 3.984375 -2.5625 L 3.984375 -0.578125 C 3.984375 -0.410156 4.007812 -0.296875 4.0625 -0.234375 C 4.125 -0.171875 4.203125 -0.132812 4.296875 -0.125 C 4.390625 -0.125 4.488281 -0.113281 4.59375 -0.09375 C 4.644531 -0.09375 4.671875 -0.0703125 4.671875 -0.03125 C 4.671875 0 4.644531 0.015625 4.59375 0.015625 L 2.671875 0.015625 C 2.628906 0.015625 2.601562 0 2.59375 -0.03125 C 2.59375 -0.0703125 2.613281 -0.09375 2.65625 -0.09375 C 2.769531 -0.113281 2.875 -0.125 2.96875 -0.125 C 3.0625 -0.132812 3.132812 -0.171875 3.1875 -0.234375 C 3.25 -0.296875 3.28125 -0.410156 3.28125 -0.578125 L 3.28125 -2.5 L 1.171875 -5.53125 C 1.054688 -5.6875 0.945312 -5.789062 0.84375 -5.84375 C 0.75 -5.894531 0.65625 -5.925781 0.5625 -5.9375 C 0.476562 -5.945312 0.378906 -5.960938 0.265625 -5.984375 C 0.222656 -5.992188 0.203125 -6.007812 0.203125 -6.03125 C 0.203125 -6.0625 0.226562 -6.078125 0.28125 -6.078125 L 2.421875 -6.078125 C 2.472656 -6.078125 2.5 -6.0625 2.5 -6.03125 C 2.507812 -6 2.488281 -5.984375 2.4375 -5.984375 C 2.300781 -5.972656 2.179688 -5.957031 2.078125 -5.9375 C 1.984375 -5.914062 1.925781 -5.875 1.90625 -5.8125 C 1.882812 -5.757812 1.921875 -5.671875 2.015625 -5.546875 L 3.765625 -2.96875 C 3.816406 -2.914062 3.859375 -2.890625 3.890625 -2.890625 C 3.910156 -2.890625 3.945312 -2.914062 4 -2.96875 L 5.828125 -5.546875 C 5.921875 -5.671875 5.953125 -5.757812 5.921875 -5.8125 C 5.898438 -5.875 5.835938 -5.914062 5.734375 -5.9375 C 5.640625 -5.957031 5.53125 -5.972656 5.40625 -5.984375 C 5.363281 -5.984375 5.34375 -6 5.34375 -6.03125 C 5.34375 -6.0625 5.367188 -6.078125 5.421875 -6.078125 Z M 7 -6.078125 "/></g></g></g><g fill="#ffffff" fill-opacity="1"><g transform="translate(65.700575, 8.085516)"><g/></g></g><g fill="#ffffff" fill-opacity="1"><g transform="translate(71.25067, 8.085516)"><g><path d="M 2.65625 -3.609375 C 2.96875 -3.546875 3.285156 -3.472656 3.609375 -3.390625 C 3.941406 -3.316406 4.242188 -3.210938 4.515625 -3.078125 C 4.796875 -2.953125 5.023438 -2.773438 5.203125 -2.546875 C 5.378906 -2.316406 5.46875 -2.023438 5.46875 -1.671875 C 5.46875 -1.253906 5.34375 -0.910156 5.09375 -0.640625 C 4.851562 -0.378906 4.539062 -0.1875 4.15625 -0.0625 C 3.78125 0.0507812 3.378906 0.109375 2.953125 0.109375 C 2.421875 0.109375 1.941406 0.0390625 1.515625 -0.09375 C 1.097656 -0.238281 0.691406 -0.492188 0.296875 -0.859375 C 0.210938 -0.953125 0.1875 -1.035156 0.21875 -1.109375 C 0.25 -1.179688 0.300781 -1.21875 0.375 -1.21875 C 0.4375 -1.21875 0.492188 -1.179688 0.546875 -1.109375 C 0.722656 -0.867188 0.941406 -0.671875 1.203125 -0.515625 C 1.460938 -0.367188 1.734375 -0.257812 2.015625 -0.1875 C 2.296875 -0.125 2.5625 -0.09375 2.8125 -0.09375 C 3.1875 -0.101562 3.519531 -0.179688 3.8125 -0.328125 C 4.101562 -0.472656 4.328125 -0.65625 4.484375 -0.875 C 4.648438 -1.09375 4.734375 -1.320312 4.734375 -1.5625 C 4.734375 -1.800781 4.628906 -2.019531 4.421875 -2.21875 C 4.210938 -2.425781 3.878906 -2.582031 3.421875 -2.6875 C 3.117188 -2.757812 2.789062 -2.832031 2.4375 -2.90625 C 2.09375 -2.976562 1.769531 -3.070312 1.46875 -3.1875 C 1.175781 -3.300781 0.9375 -3.460938 0.75 -3.671875 C 0.5625 -3.878906 0.46875 -4.148438 0.46875 -4.484375 C 0.46875 -4.878906 0.578125 -5.203125 0.796875 -5.453125 C 1.015625 -5.710938 1.296875 -5.898438 1.640625 -6.015625 C 1.992188 -6.128906 2.359375 -6.1875 2.734375 -6.1875 C 3.171875 -6.1875 3.59375 -6.117188 4 -5.984375 C 4.144531 -5.941406 4.296875 -5.875 4.453125 -5.78125 L 4.46875 -5.78125 C 4.550781 -5.726562 4.628906 -5.671875 4.703125 -5.609375 C 4.773438 -5.554688 4.832031 -5.503906 4.875 -5.453125 C 5.007812 -5.296875 5.046875 -5.15625 4.984375 -5.03125 C 4.929688 -4.914062 4.847656 -4.859375 4.734375 -4.859375 C 4.679688 -4.859375 4.628906 -4.867188 4.578125 -4.890625 C 4.523438 -4.921875 4.476562 -4.96875 4.4375 -5.03125 C 4.382812 -5.125 4.347656 -5.21875 4.328125 -5.3125 C 4.304688 -5.40625 4.257812 -5.492188 4.1875 -5.578125 C 4.125 -5.671875 3.992188 -5.757812 3.796875 -5.84375 C 3.484375 -5.9375 3.148438 -5.984375 2.796875 -5.984375 C 2.503906 -5.984375 2.234375 -5.941406 1.984375 -5.859375 C 1.734375 -5.785156 1.53125 -5.660156 1.375 -5.484375 C 1.21875 -5.316406 1.140625 -5.097656 1.140625 -4.828125 C 1.140625 -4.660156 1.175781 -4.5 1.25 -4.34375 C 1.332031 -4.195312 1.484375 -4.0625 1.703125 -3.9375 C 1.921875 -3.8125 2.238281 -3.703125 2.65625 -3.609375 Z M 2.65625 -3.609375 "/></g></g></g><g fill="#ffffff" fill-opacity="1"><g transform="translate(80.335306, 8.085516)"><g><path d="M 5.15625 -1.109375 C 5.175781 -1.160156 5.207031 -1.179688 5.25 -1.171875 C 5.300781 -1.171875 5.328125 -1.148438 5.328125 -1.109375 L 5.28125 -0.09375 C 5.28125 -0.0625 5.257812 -0.046875 5.21875 -0.046875 L 0.28125 -0.046875 C 0.226562 -0.046875 0.203125 -0.0664062 0.203125 -0.109375 C 0.203125 -0.160156 0.222656 -0.191406 0.265625 -0.203125 C 0.378906 -0.222656 0.476562 -0.238281 0.5625 -0.25 C 0.65625 -0.257812 0.726562 -0.289062 0.78125 -0.34375 C 0.84375 -0.40625 0.875 -0.519531 0.875 -0.6875 L 0.875 -5.46875 C 0.875 -5.644531 0.84375 -5.757812 0.78125 -5.8125 C 0.726562 -5.875 0.65625 -5.90625 0.5625 -5.90625 C 0.476562 -5.914062 0.378906 -5.929688 0.265625 -5.953125 C 0.222656 -5.972656 0.203125 -6.003906 0.203125 -6.046875 C 0.203125 -6.097656 0.226562 -6.125 0.28125 -6.125 L 4.984375 -6.125 C 5.035156 -6.125 5.0625 -6.109375 5.0625 -6.078125 L 5.109375 -5.0625 C 5.109375 -5.019531 5.082031 -4.992188 5.03125 -4.984375 C 4.976562 -4.984375 4.945312 -5.003906 4.9375 -5.046875 C 4.894531 -5.253906 4.828125 -5.421875 4.734375 -5.546875 C 4.640625 -5.671875 4.5 -5.757812 4.3125 -5.8125 C 4.132812 -5.875 3.878906 -5.90625 3.546875 -5.90625 L 2.03125 -5.90625 C 1.90625 -5.90625 1.800781 -5.878906 1.71875 -5.828125 C 1.632812 -5.773438 1.59375 -5.664062 1.59375 -5.5 L 1.59375 -3.046875 L 3.515625 -3.046875 C 3.816406 -3.046875 4.015625 -3.113281 4.109375 -3.25 C 4.210938 -3.382812 4.265625 -3.519531 4.265625 -3.65625 C 4.273438 -3.707031 4.304688 -3.734375 4.359375 -3.734375 C 4.410156 -3.734375 4.4375 -3.707031 4.4375 -3.65625 L 4.4375 -2.234375 C 4.4375 -2.191406 4.410156 -2.164062 4.359375 -2.15625 C 4.304688 -2.15625 4.273438 -2.179688 4.265625 -2.234375 C 4.265625 -2.378906 4.210938 -2.515625 4.109375 -2.640625 C 4.015625 -2.773438 3.816406 -2.84375 3.515625 -2.84375 L 1.59375 -2.84375 L 1.59375 -0.671875 C 1.59375 -0.523438 1.625 -0.421875 1.6875 -0.359375 C 1.757812 -0.304688 1.847656 -0.273438 1.953125 -0.265625 L 3.875 -0.265625 C 4.207031 -0.265625 4.457031 -0.289062 4.625 -0.34375 C 4.789062 -0.394531 4.910156 -0.484375 4.984375 -0.609375 C 5.054688 -0.734375 5.113281 -0.898438 5.15625 -1.109375 Z M 5.15625 -1.109375 "/></g></g></g><g fill="#ffffff" fill-opacity="1"><g transform="translate(89.57492, 8.085516)"><g><path d="M 5.84375 -2.140625 C 5.988281 -2.140625 6.085938 -2.085938 6.140625 -1.984375 C 6.203125 -1.878906 6.238281 -1.757812 6.25 -1.625 C 6.257812 -1.488281 6.265625 -1.367188 6.265625 -1.265625 C 6.265625 -1.046875 6.222656 -0.832031 6.140625 -0.625 C 6.054688 -0.414062 5.929688 -0.242188 5.765625 -0.109375 C 5.597656 0.0234375 5.367188 0.09375 5.078125 0.09375 C 4.828125 0.09375 4.597656 0.0234375 4.390625 -0.109375 C 4.191406 -0.253906 4.003906 -0.425781 3.828125 -0.625 C 3.660156 -0.832031 3.492188 -1.035156 3.328125 -1.234375 C 3.160156 -1.441406 2.976562 -1.617188 2.78125 -1.765625 C 2.582031 -1.910156 2.359375 -1.988281 2.109375 -2 C 2.023438 -1.988281 1.976562 -2.019531 1.96875 -2.09375 C 1.96875 -2.164062 2.015625 -2.195312 2.109375 -2.1875 C 2.171875 -2.175781 2.203125 -2.164062 2.203125 -2.15625 C 2.210938 -2.15625 2.253906 -2.15625 2.328125 -2.15625 C 2.804688 -2.15625 3.238281 -2.226562 3.625 -2.375 C 4.019531 -2.519531 4.328125 -2.726562 4.546875 -3 C 4.773438 -3.28125 4.890625 -3.628906 4.890625 -4.046875 C 4.890625 -4.671875 4.660156 -5.128906 4.203125 -5.421875 C 3.742188 -5.722656 3.117188 -5.875 2.328125 -5.875 C 2.242188 -5.875 2.175781 -5.875 2.125 -5.875 C 2.082031 -5.875 2.046875 -5.875 2.015625 -5.875 L 2.046875 -5.859375 C 1.921875 -5.859375 1.8125 -5.832031 1.71875 -5.78125 C 1.632812 -5.726562 1.59375 -5.617188 1.59375 -5.453125 L 1.59375 -0.640625 C 1.59375 -0.472656 1.617188 -0.359375 1.671875 -0.296875 C 1.734375 -0.234375 1.8125 -0.195312 1.90625 -0.1875 C 2 -0.1875 2.097656 -0.175781 2.203125 -0.15625 C 2.253906 -0.144531 2.28125 -0.113281 2.28125 -0.0625 C 2.28125 -0.0078125 2.253906 0.015625 2.203125 0.015625 L 0.28125 0.015625 C 0.226562 0.015625 0.203125 -0.0078125 0.203125 -0.0625 C 0.203125 -0.113281 0.222656 -0.144531 0.265625 -0.15625 C 0.378906 -0.175781 0.476562 -0.1875 0.5625 -0.1875 C 0.65625 -0.195312 0.726562 -0.234375 0.78125 -0.296875 C 0.84375 -0.359375 0.875 -0.472656 0.875 -0.640625 L 0.875 -5.4375 C 0.875 -5.613281 0.84375 -5.726562 0.78125 -5.78125 C 0.726562 -5.84375 0.65625 -5.878906 0.5625 -5.890625 C 0.476562 -5.898438 0.378906 -5.910156 0.265625 -5.921875 C 0.222656 -5.929688 0.203125 -5.957031 0.203125 -6 C 0.203125 -6.050781 0.226562 -6.078125 0.28125 -6.078125 L 3.09375 -6.078125 C 3.550781 -6.078125 3.976562 -6 4.375 -5.84375 C 4.78125 -5.695312 5.101562 -5.472656 5.34375 -5.171875 C 5.59375 -4.878906 5.71875 -4.507812 5.71875 -4.0625 C 5.71875 -3.726562 5.644531 -3.4375 5.5 -3.1875 C 5.363281 -2.9375 5.175781 -2.726562 4.9375 -2.5625 C 4.695312 -2.40625 4.429688 -2.28125 4.140625 -2.1875 C 3.847656 -2.09375 3.550781 -2.035156 3.25 -2.015625 C 3.457031 -1.960938 3.632812 -1.875 3.78125 -1.75 C 3.925781 -1.625 4.0625 -1.484375 4.1875 -1.328125 C 4.3125 -1.179688 4.429688 -1.039062 4.546875 -0.90625 C 4.671875 -0.769531 4.800781 -0.65625 4.9375 -0.5625 C 5.070312 -0.46875 5.226562 -0.421875 5.40625 -0.421875 C 5.582031 -0.421875 5.722656 -0.46875 5.828125 -0.5625 C 5.941406 -0.664062 6.003906 -0.785156 6.015625 -0.921875 C 6.035156 -1.066406 6 -1.191406 5.90625 -1.296875 C 5.820312 -1.398438 5.738281 -1.488281 5.65625 -1.5625 C 5.582031 -1.644531 5.546875 -1.738281 5.546875 -1.84375 C 5.546875 -1.925781 5.570312 -1.992188 5.625 -2.046875 C 5.6875 -2.109375 5.757812 -2.140625 5.84375 -2.140625 Z M 5.84375 -2.140625 "/></g></g></g><g fill="#ffffff" fill-opacity="1"><g transform="translate(98.562593, 8.085516)"><g><path d="M 6.9375 -6.078125 C 6.988281 -6.078125 7.015625 -6.050781 7.015625 -6 C 7.015625 -5.957031 6.992188 -5.929688 6.953125 -5.921875 C 6.835938 -5.910156 6.726562 -5.894531 6.625 -5.875 C 6.519531 -5.863281 6.421875 -5.828125 6.328125 -5.765625 C 6.234375 -5.703125 6.148438 -5.59375 6.078125 -5.4375 C 5.828125 -4.84375 5.570312 -4.234375 5.3125 -3.609375 C 5.050781 -2.992188 4.789062 -2.375 4.53125 -1.75 C 4.269531 -1.132812 4.019531 -0.539062 3.78125 0.03125 C 3.644531 0.0703125 3.539062 0.0625 3.46875 0 C 3.40625 -0.0703125 3.34375 -0.175781 3.28125 -0.3125 L 1.140625 -5.453125 C 1.066406 -5.617188 0.984375 -5.726562 0.890625 -5.78125 C 0.796875 -5.84375 0.695312 -5.878906 0.59375 -5.890625 C 0.488281 -5.898438 0.378906 -5.910156 0.265625 -5.921875 C 0.222656 -5.929688 0.203125 -5.957031 0.203125 -6 C 0.210938 -6.050781 0.238281 -6.078125 0.28125 -6.078125 L 2.359375 -6.078125 C 2.410156 -6.078125 2.4375 -6.050781 2.4375 -6 C 2.445312 -5.957031 2.429688 -5.929688 2.390625 -5.921875 C 2.273438 -5.910156 2.171875 -5.894531 2.078125 -5.875 C 1.992188 -5.863281 1.929688 -5.832031 1.890625 -5.78125 C 1.859375 -5.726562 1.867188 -5.632812 1.921875 -5.5 C 2.234375 -4.757812 2.546875 -4.023438 2.859375 -3.296875 C 3.171875 -2.566406 3.476562 -1.835938 3.78125 -1.109375 C 3.820312 -1.035156 3.859375 -1 3.890625 -1 C 3.921875 -1 3.953125 -1.035156 3.984375 -1.109375 L 5.828125 -5.5 C 5.890625 -5.644531 5.890625 -5.742188 5.828125 -5.796875 C 5.765625 -5.847656 5.671875 -5.878906 5.546875 -5.890625 C 5.429688 -5.898438 5.320312 -5.910156 5.21875 -5.921875 C 5.164062 -5.929688 5.140625 -5.957031 5.140625 -6 C 5.148438 -6.050781 5.175781 -6.078125 5.21875 -6.078125 Z M 6.9375 -6.078125 "/></g></g></g><g fill="#ffffff" fill-opacity="1"><g transform="translate(109.196618, 8.085516)"><g><path d="M 2.203125 -0.203125 C 2.253906 -0.191406 2.273438 -0.160156 2.265625 -0.109375 C 2.265625 -0.0664062 2.238281 -0.046875 2.1875 -0.046875 L 0.28125 -0.046875 C 0.226562 -0.046875 0.203125 -0.0664062 0.203125 -0.109375 C 0.203125 -0.160156 0.222656 -0.191406 0.265625 -0.203125 C 0.378906 -0.222656 0.476562 -0.238281 0.5625 -0.25 C 0.65625 -0.257812 0.726562 -0.289062 0.78125 -0.34375 C 0.84375 -0.40625 0.875 -0.519531 0.875 -0.6875 L 0.875 -5.46875 C 0.875 -5.644531 0.84375 -5.757812 0.78125 -5.8125 C 0.726562 -5.875 0.65625 -5.90625 0.5625 -5.90625 C 0.476562 -5.914062 0.378906 -5.929688 0.265625 -5.953125 C 0.222656 -5.972656 0.203125 -6.003906 0.203125 -6.046875 C 0.203125 -6.097656 0.226562 -6.125 0.28125 -6.125 L 2.1875 -6.125 C 2.238281 -6.125 2.265625 -6.097656 2.265625 -6.046875 C 2.273438 -6.003906 2.253906 -5.972656 2.203125 -5.953125 C 2.085938 -5.929688 1.984375 -5.914062 1.890625 -5.90625 C 1.796875 -5.90625 1.722656 -5.875 1.671875 -5.8125 C 1.617188 -5.757812 1.59375 -5.644531 1.59375 -5.46875 L 1.59375 -0.6875 C 1.59375 -0.519531 1.617188 -0.40625 1.671875 -0.34375 C 1.722656 -0.289062 1.796875 -0.257812 1.890625 -0.25 C 1.984375 -0.238281 2.085938 -0.222656 2.203125 -0.203125 Z M 2.203125 -0.203125 "/></g></g></g><g fill="#ffffff" fill-opacity="1"><g transform="translate(114.901624, 8.085516)"><g><path d="M 5.71875 -1.1875 C 5.769531 -1.269531 5.832031 -1.3125 5.90625 -1.3125 C 5.976562 -1.3125 6.03125 -1.28125 6.0625 -1.21875 C 6.101562 -1.15625 6.085938 -1.082031 6.015625 -1 C 5.734375 -0.675781 5.394531 -0.410156 5 -0.203125 C 4.613281 -0.00390625 4.125 0.09375 3.53125 0.09375 C 2.90625 0.09375 2.363281 -0.0195312 1.90625 -0.25 C 1.445312 -0.476562 1.082031 -0.78125 0.8125 -1.15625 C 0.539062 -1.539062 0.359375 -1.957031 0.265625 -2.40625 C 0.179688 -2.863281 0.179688 -3.316406 0.265625 -3.765625 C 0.359375 -4.210938 0.539062 -4.625 0.8125 -5 C 1.082031 -5.375 1.445312 -5.675781 1.90625 -5.90625 C 2.363281 -6.144531 2.90625 -6.265625 3.53125 -6.265625 C 3.78125 -6.265625 4.015625 -6.242188 4.234375 -6.203125 C 4.453125 -6.160156 4.65625 -6.101562 4.84375 -6.03125 C 4.9375 -6.007812 5.046875 -5.960938 5.171875 -5.890625 C 5.304688 -5.828125 5.4375 -5.753906 5.5625 -5.671875 C 5.6875 -5.585938 5.773438 -5.507812 5.828125 -5.4375 C 5.929688 -5.320312 5.976562 -5.207031 5.96875 -5.09375 C 5.96875 -4.988281 5.929688 -4.898438 5.859375 -4.828125 C 5.796875 -4.765625 5.71875 -4.734375 5.625 -4.734375 C 5.550781 -4.734375 5.476562 -4.753906 5.40625 -4.796875 C 5.332031 -4.835938 5.269531 -4.910156 5.21875 -5.015625 C 5.175781 -5.097656 5.144531 -5.1875 5.125 -5.28125 C 5.113281 -5.375 5.070312 -5.46875 5 -5.5625 C 4.925781 -5.664062 4.785156 -5.769531 4.578125 -5.875 C 4.421875 -5.925781 4.25 -5.957031 4.0625 -5.96875 C 3.875 -5.988281 3.695312 -6 3.53125 -6 C 3.0625 -6 2.65625 -5.894531 2.3125 -5.6875 C 1.96875 -5.476562 1.691406 -5.195312 1.484375 -4.84375 C 1.285156 -4.5 1.148438 -4.117188 1.078125 -3.703125 C 1.003906 -3.285156 1 -2.867188 1.0625 -2.453125 C 1.132812 -2.035156 1.269531 -1.648438 1.46875 -1.296875 C 1.675781 -0.953125 1.953125 -0.675781 2.296875 -0.46875 C 2.640625 -0.257812 3.050781 -0.15625 3.53125 -0.15625 C 3.976562 -0.15625 4.335938 -0.207031 4.609375 -0.3125 C 4.890625 -0.414062 5.113281 -0.546875 5.28125 -0.703125 C 5.457031 -0.859375 5.601562 -1.019531 5.71875 -1.1875 Z M 5.71875 -1.1875 "/></g></g></g><g fill="#ffffff" fill-opacity="1"><g transform="translate(124.606015, 8.085516)"><g><path d="M 5.15625 -1.109375 C 5.175781 -1.160156 5.207031 -1.179688 5.25 -1.171875 C 5.300781 -1.171875 5.328125 -1.148438 5.328125 -1.109375 L 5.28125 -0.09375 C 5.28125 -0.0625 5.257812 -0.046875 5.21875 -0.046875 L 0.28125 -0.046875 C 0.226562 -0.046875 0.203125 -0.0664062 0.203125 -0.109375 C 0.203125 -0.160156 0.222656 -0.191406 0.265625 -0.203125 C 0.378906 -0.222656 0.476562 -0.238281 0.5625 -0.25 C 0.65625 -0.257812 0.726562 -0.289062 0.78125 -0.34375 C 0.84375 -0.40625 0.875 -0.519531 0.875 -0.6875 L 0.875 -5.46875 C 0.875 -5.644531 0.84375 -5.757812 0.78125 -5.8125 C 0.726562 -5.875 0.65625 -5.90625 0.5625 -5.90625 C 0.476562 -5.914062 0.378906 -5.929688 0.265625 -5.953125 C 0.222656 -5.972656 0.203125 -6.003906 0.203125 -6.046875 C 0.203125 -6.097656 0.226562 -6.125 0.28125 -6.125 L 4.984375 -6.125 C 5.035156 -6.125 5.0625 -6.109375 5.0625 -6.078125 L 5.109375 -5.0625 C 5.109375 -5.019531 5.082031 -4.992188 5.03125 -4.984375 C 4.976562 -4.984375 4.945312 -5.003906 4.9375 -5.046875 C 4.894531 -5.253906 4.828125 -5.421875 4.734375 -5.546875 C 4.640625 -5.671875 4.5 -5.757812 4.3125 -5.8125 C 4.132812 -5.875 3.878906 -5.90625 3.546875 -5.90625 L 2.03125 -5.90625 C 1.90625 -5.90625 1.800781 -5.878906 1.71875 -5.828125 C 1.632812 -5.773438 1.59375 -5.664062 1.59375 -5.5 L 1.59375 -3.046875 L 3.515625 -3.046875 C 3.816406 -3.046875 4.015625 -3.113281 4.109375 -3.25 C 4.210938 -3.382812 4.265625 -3.519531 4.265625 -3.65625 C 4.273438 -3.707031 4.304688 -3.734375 4.359375 -3.734375 C 4.410156 -3.734375 4.4375 -3.707031 4.4375 -3.65625 L 4.4375 -2.234375 C 4.4375 -2.191406 4.410156 -2.164062 4.359375 -2.15625 C 4.304688 -2.15625 4.273438 -2.179688 4.265625 -2.234375 C 4.265625 -2.378906 4.210938 -2.515625 4.109375 -2.640625 C 4.015625 -2.773438 3.816406 -2.84375 3.515625 -2.84375 L 1.59375 -2.84375 L 1.59375 -0.671875 C 1.59375 -0.523438 1.625 -0.421875 1.6875 -0.359375 C 1.757812 -0.304688 1.847656 -0.273438 1.953125 -0.265625 L 3.875 -0.265625 C 4.207031 -0.265625 4.457031 -0.289062 4.625 -0.34375 C 4.789062 -0.394531 4.910156 -0.484375 4.984375 -0.609375 C 5.054688 -0.734375 5.113281 -0.898438 5.15625 -1.109375 Z M 5.15625 -1.109375 "/></g></g></g><g fill="#ffffff" fill-opacity="1"><g transform="translate(133.555075, 8.085516)"><g><path d="M 2.65625 -3.609375 C 2.96875 -3.546875 3.285156 -3.472656 3.609375 -3.390625 C 3.941406 -3.316406 4.242188 -3.210938 4.515625 -3.078125 C 4.796875 -2.953125 5.023438 -2.773438 5.203125 -2.546875 C 5.378906 -2.316406 5.46875 -2.023438 5.46875 -1.671875 C 5.46875 -1.253906 5.34375 -0.910156 5.09375 -0.640625 C 4.851562 -0.378906 4.539062 -0.1875 4.15625 -0.0625 C 3.78125 0.0507812 3.378906 0.109375 2.953125 0.109375 C 2.421875 0.109375 1.941406 0.0390625 1.515625 -0.09375 C 1.097656 -0.238281 0.691406 -0.492188 0.296875 -0.859375 C 0.210938 -0.953125 0.1875 -1.035156 0.21875 -1.109375 C 0.25 -1.179688 0.300781 -1.21875 0.375 -1.21875 C 0.4375 -1.21875 0.492188 -1.179688 0.546875 -1.109375 C 0.722656 -0.867188 0.941406 -0.671875 1.203125 -0.515625 C 1.460938 -0.367188 1.734375 -0.257812 2.015625 -0.1875 C 2.296875 -0.125 2.5625 -0.09375 2.8125 -0.09375 C 3.1875 -0.101562 3.519531 -0.179688 3.8125 -0.328125 C 4.101562 -0.472656 4.328125 -0.65625 4.484375 -0.875 C 4.648438 -1.09375 4.734375 -1.320312 4.734375 -1.5625 C 4.734375 -1.800781 4.628906 -2.019531 4.421875 -2.21875 C 4.210938 -2.425781 3.878906 -2.582031 3.421875 -2.6875 C 3.117188 -2.757812 2.789062 -2.832031 2.4375 -2.90625 C 2.09375 -2.976562 1.769531 -3.070312 1.46875 -3.1875 C 1.175781 -3.300781 0.9375 -3.460938 0.75 -3.671875 C 0.5625 -3.878906 0.46875 -4.148438 0.46875 -4.484375 C 0.46875 -4.878906 0.578125 -5.203125 0.796875 -5.453125 C 1.015625 -5.710938 1.296875 -5.898438 1.640625 -6.015625 C 1.992188 -6.128906 2.359375 -6.1875 2.734375 -6.1875 C 3.171875 -6.1875 3.59375 -6.117188 4 -5.984375 C 4.144531 -5.941406 4.296875 -5.875 4.453125 -5.78125 L 4.46875 -5.78125 C 4.550781 -5.726562 4.628906 -5.671875 4.703125 -5.609375 C 4.773438 -5.554688 4.832031 -5.503906 4.875 -5.453125 C 5.007812 -5.296875 5.046875 -5.15625 4.984375 -5.03125 C 4.929688 -4.914062 4.847656 -4.859375 4.734375 -4.859375 C 4.679688 -4.859375 4.628906 -4.867188 4.578125 -4.890625 C 4.523438 -4.921875 4.476562 -4.96875 4.4375 -5.03125 C 4.382812 -5.125 4.347656 -5.21875 4.328125 -5.3125 C 4.304688 -5.40625 4.257812 -5.492188 4.1875 -5.578125 C 4.125 -5.671875 3.992188 -5.757812 3.796875 -5.84375 C 3.484375 -5.9375 3.148438 -5.984375 2.796875 -5.984375 C 2.503906 -5.984375 2.234375 -5.941406 1.984375 -5.859375 C 1.734375 -5.785156 1.53125 -5.660156 1.375 -5.484375 C 1.21875 -5.316406 1.140625 -5.097656 1.140625 -4.828125 C 1.140625 -4.660156 1.175781 -4.5 1.25 -4.34375 C 1.332031 -4.195312 1.484375 -4.0625 1.703125 -3.9375 C 1.921875 -3.8125 2.238281 -3.703125 2.65625 -3.609375 Z M 2.65625 -3.609375 "/></g></g></g></g></g><path stroke-linecap="butt" transform="matrix(0.75, 0.0000554635, -0.0000554635, 0.75, 14.400085, 95.503751)" fill="none" stroke-linejoin="miter" d="M -0.00208521 1.500208 L 50.451043 1.501685 " stroke="#ffffff" stroke-width="3" stroke-opacity="1" stroke-miterlimit="4"/><path stroke-linecap="butt" transform="matrix(0.75, -0.0000569152, 0.0000569152, 0.75, 200.726959, 95.506542)" fill="none" stroke-linejoin="miter" d="M -0.000642811 1.501694 L 49.166027 1.500217 " stroke="#ffffff" stroke-width="3" stroke-opacity="1" stroke-miterlimit="4"/></svg>